<svg width="980" height="551" xmlns="http://www.w3.org/2000/svg" xmlns:xlink="http://www.w3.org/1999/xlink">
<path fill="#ff595e" d="M 415.54 392.31 Q 415.54 392.31 418.53 390.67 421.51 389.03 426.73 389.75 431.95 390.47 437.44 391.05 442.93 391.62 456.05 393.35 469.17 395.08 479.70 396.33 490.23 397.57 501.42 398.71 512.61 399.85 519.32 400.33 526.02 400.81 532.67 401.59 539.33 402.38 543.36 402.70 547.39 403.02 551.79 403.40 556.18 403.77 558.93 405.99 561.67 408.20 561.67 408.21 561.67 408.21 561.67 408.22 561.67 408.22 558.58 409.98 555.49 411.74 551.12 411.37 546.75 410.99 542.57 410.66 538.39 410.32 531.92 409.56 525.45 408.79 518.62 408.30 511.80 407.81 500.55 406.66 489.30 405.52 478.71 404.27 468.12 403.02 455.11 401.30 442.09 399.58 436.47 398.99 430.85 398.39 425.69 397.68 420.53 396.97 418.04 394.65 415.54 392.33 415.54 392.32 Z"></path>
</svg>